<?xml version="1.0" standalone="no"?>
<!DOCTYPE svg PUBLIC "-//W3C//DTD SVG 20010904//EN"
 "http://www.w3.org/TR/2001/REC-SVG-20010904/DTD/svg10.dtd">
<svg version="1.0" xmlns="http://www.w3.org/2000/svg"
 width="445.000000pt" height="445.000000pt" viewBox="0 0 445.000000 445.000000"
 preserveAspectRatio="xMidYMid meet">
<metadata>
Created by potrace 1.14, written by Peter Selinger 2001-2017
</metadata>
<g transform="translate(0.000000,445.000000) scale(0.100000,-0.100000)"
fill="#000000" stroke="none">
<path d="M2117 4294 c-1 -1 -42 -5 -92 -8 -365 -26 -739 -168 -1051 -398 -104
-77 -281 -245 -373 -353 -60 -71 -181 -255 -234 -355 -87 -165 -180 -437 -202
-590 -3 -25 -9 -58 -12 -75 -31 -174 -25 -478 12 -665 3 -14 8 -38 11 -55 12
-69 57 -226 91 -315 231 -609 756 -1087 1378 -1258 108 -30 135 -36 205 -47
19 -3 42 -8 50 -10 35 -9 194 -20 310 -20 424 0 820 123 1170 363 52 36 97 68
100 71 3 4 25 22 50 41 77 59 253 243 333 349 214 284 367 654 402 971 3 30 9
75 12 100 7 52 12 2231 5 2244 -3 4 -198 -185 -433 -420 l-429 -429 -430 430
-429 429 -222 1 c-121 0 -221 -1 -222 -1z m1300 -1546 c-2 -376 -6 -697 -9
-713 -40 -193 -79 -300 -166 -444 -47 -78 -52 -85 -121 -165 -77 -89 -160
-162 -256 -225 -107 -69 -302 -150 -399 -165 -21 -4 -48 -9 -60 -12 -58 -14
-237 -19 -330 -9 -190 21 -381 91 -551 203 -38 26 -115 92 -170 147 -130 130
-208 247 -272 406 -177 438 -74 954 257 1288 113 115 173 160 300 228 98 53
244 106 325 119 22 3 58 9 80 14 22 4 341 8 708 9 l668 2 -4 -683z"/>
</g>
</svg>
